<svg xmlns="http://www.w3.org/2000/svg" xmlns:xlink="http://www.w3.org/1999/xlink" width="38px" height="26px" version="1.1">
    <g stroke="none" stroke-width="1" fill="none" fill-rule="evenodd">
        <path d="M36.3139752,0 L23.6039425,0 C22.8257772,0 22.1773062,0.494485477 21.9179177,1.11259232 L16.600455,11.8676515 L13.487794,18.2959627 C13.2284055,18.7904481 12.9690171,18.2959627 12.9690171,18.2959627 L6.21764246,4.45430747 C6.21764246,4.45430747 5.95825404,3.959822 6.6067251,3.959822 C7.25519616,3.959822 11.4054109,3.959822 11.9241878,3.959822 C12.5726588,3.959822 12.8320473,4.45430747 12.8320473,4.45430747 C13.9110844,6.49834959 14.7707724,8.18705542 15.4111111,9.52042495 C15.4577356,9.61751057 17.9188422,4.66787994 17.870676,4.5684064 C17.3840099,3.5633369 16.7876773,2.41139887 16.0816782,1.11259232 C15.8222898,0.494485477 15.1738187,0.123621369 14.3956534,4.3919133e-15 L1.68562069,4.3919133e-15 C0.393330991,0 -0.290537295,1.13259704 0.117937491,2.1102236 L11.2829924,24.8478952 C11.672075,25.4660021 12.3510171,26 13.2588766,26 C14.0370419,26 14.7847361,25.4660021 15.1738187,24.8478952 L18.9349509,17.059749 L25.2006789,4.45430747 C25.2006789,4.45430747 25.4600674,3.959822 26.1085384,3.959822 C26.4976211,3.959822 30.7775301,3.959822 31.4260011,3.959822 C32.0744722,3.959822 31.8150837,4.45430747 31.8150837,4.45430747 L25.0305788,18.1723413 C25.0305788,18.1723413 24.7711904,18.6668268 24.511802,18.1723413 L22.6253011,14.2943373 L20.1611111,19.2391921 L22.8257772,24.7242739 C23.2148599,25.3423807 23.8852364,26 24.7930959,26 C25.5712611,26 26.3275209,25.3423807 26.7166036,24.7242739 L37.8703058,1.97794191 C38,1.74330539 38,1.6070778 38,1.48345643 C38,0.741728216 37.2218347,0 36.3139752,0 Z" id="Shape" fill="#417ff9" fill-rule="nonzero"/>
    </g>
</svg>